<svg width="512" height="512" viewBox="0 0 32 32" fill="none" xmlns="http://www.w3.org/2000/svg">
  <rect width="32" height="32" rx="8" fill="#111111"/>
  <circle cx="16" cy="16" r="13" fill="#F59E0B" fill-opacity="0.18"/>
  <circle cx="16" cy="16" r="12" stroke="#F59E0B" stroke-width="1.6" stroke-opacity="0.8"/>
  <path d="M16 6.5L22.8 10.4V18.2L16 22.1L9.2 18.2V10.4L16 6.5Z" stroke="#F59E0B" stroke-width="1.2" stroke-opacity="0.6"/>
  <path d="M13.9 20.8C11.7 20.8 10 19.1 10 16.9C10 14.7 11.7 13 13.9 13C15 13 15.9 13.4 16.6 14.1" stroke="#FDE68A" stroke-width="1.9" stroke-linecap="round"/>
  <path d="M17 13H20.7C21.9 13 22.9 14 22.9 15.2V16.9C22.9 19.1 21.1 20.8 18.9 20.8H17V17.2H20" stroke="#FDE68A" stroke-width="1.9" stroke-linecap="round" stroke-linejoin="round"/>
  <circle cx="16" cy="8.8" r="1.2" fill="#FDE68A"/>
</svg>
